<svg id="bold" fill="#333333" height="100" width="100" xmlns="http://www.w3.org/2000/svg"><path d="M97.327,51.18l-14.71,32.199c-1.451,3.176-5.201,4.573-8.376,3.123L42.04,71.792  c-3.175-1.451-4.574-5.202-3.123-8.377l14.711-32.2c1.45-3.176,5.2-4.574,8.376-3.123l32.201,14.71  C97.381,44.252,98.778,48.004,97.327,51.18z M64.683,35.918c-3.016-1.378-6.578-0.05-7.957,2.967  c-1.378,3.017-0.05,6.58,2.968,7.958c3.017,1.378,6.579,0.051,7.958-2.967C69.028,40.859,67.7,37.296,64.683,35.918z M70.618,51.835  c-3.017-1.378-6.58-0.051-7.958,2.967c-1.379,3.017-0.05,6.58,2.966,7.959c3.018,1.376,6.581,0.049,7.959-2.969  C74.963,56.776,73.635,53.212,70.618,51.835z M76.552,67.75c-3.017-1.377-6.58-0.049-7.957,2.968  c-1.379,3.017-0.051,6.58,2.967,7.958c3.016,1.378,6.579,0.05,7.957-2.967C80.897,72.691,79.568,69.129,76.552,67.75z   M34.057,64.433c-0.93,2.037-0.826,4.263,0.044,6.147l-6.543,3.052c-3.164,1.475-6.926,0.105-8.4-3.058L4.195,38.49  c-1.476-3.164-0.107-6.926,3.059-8.401l32.084-14.961c3.164-1.476,6.924-0.107,8.4,3.058l3.796,8.142  c-0.104,0.185-0.23,0.351-0.319,0.547L34.057,64.433z M22.929,36.032c-1.402-3.007-4.975-4.307-7.981-2.905  c-3.006,1.401-4.306,4.974-2.904,7.981c1.4,3.006,4.974,4.306,7.98,2.905C23.029,42.611,24.33,39.038,22.929,36.032z M25.1,54.899  c-3.007,1.402-4.307,4.974-2.904,7.98c1.4,3.005,4.974,4.306,7.98,2.904c3.005-1.401,4.306-4.976,2.905-7.98  C31.679,54.797,28.105,53.497,25.1,54.899z M44.701,25.88c-1.402-3.006-4.976-4.307-7.981-2.905  c-3.006,1.401-4.307,4.975-2.906,7.981c1.402,3.006,4.976,4.306,7.982,2.904C44.801,32.458,46.102,28.886,44.701,25.88z"/></svg>
