<svg version="1.2" xmlns="http://www.w3.org/2000/svg" viewBox="0 0 1000 100" width="1000" height="100">
	<title>wave-black</title>
	<style>
		.s0 { fill: #13111c; } 
	</style>
	<path id="Path 0" class="s0" d="m199.2 0.9c-7.5 0.3-21.2 1.1-30.4 1.8-9.3 0.7-21.8 1.8-27.8 2.4-6 0.6-17.2 2.1-25 3.1-7.7 1.1-20.9 3.2-29.3 4.7-8.4 1.4-21.5 4-29.3 5.7-7.7 1.7-19.3 4.5-25.8 6.2-6.4 1.7-16.2 4.5-21.6 6.2l-10 3.1v65.9h1000v-65.9c0 0-5.9 2.3-11.7 4.2-5.8 1.9-17.6 5.2-26.2 7.3-8.6 2.2-23.4 5.5-32.8 7.4-9.5 1.9-22.8 4.3-29.7 5.4-6.9 1.1-19.5 2.9-28.1 4-8.6 1-23.4 2.6-32.8 3.4-9.5 0.9-25.5 2-35.6 2.5-11.5 0.6-31.7 0.7-54.3 0.5-21.8-0.3-42.2-0.9-51.9-1.7-8.8-0.7-23.2-1.9-32.1-2.8-8.8-0.9-21.4-2.3-28.1-3.1-6.6-0.9-17.9-2.4-25-3.5-7.1-1.1-19.6-3.2-27.7-4.7-8.2-1.4-22.4-4.2-31.7-6.2-9.2-1.9-30.5-6.9-47.2-11.1-16.8-4.2-38.4-9.4-48.1-11.6-9.6-2.1-22.1-4.7-27.7-5.8-5.6-1.1-17.5-3.2-26.6-4.7-9-1.5-22.9-3.6-30.8-4.6-8-1.1-21-2.7-28.9-3.5-8-0.9-21.3-2.1-29.7-2.7-8.4-0.7-24.2-1.6-35.2-2-10.9-0.4-30.1-0.7-42.6-0.7-12.4 0.1-28.8 0.4-36.3 0.8z"/>
</svg>