<?xml version="1.0" encoding="UTF-8"?>
<svg xmlns="http://www.w3.org/2000/svg" xmlns:xlink="http://www.w3.org/1999/xlink" viewBox="0 0 519.55 519.77">
  <defs>
    <style>
      .cls-1 {fill: url(#radial-gradient);}
      .cls-1, .cls-2, .cls-3 {stroke-width: 0px;}
      .cls-2 {fill: #6e00b8;}
      .cls-3 {fill: #fff;}
    </style>
    <radialGradient id="radial-gradient" cx="285.02" cy="255.88" fx="285.02" fy="255.88" r="245.43" gradientUnits="userSpaceOnUse">
      <stop offset="0" stop-color="#8528c3"/>
      <stop offset=".5" stop-color="#7c00b8"/>
      <stop offset="1" stop-color="#6e00b8"/>
    </radialGradient>
  </defs>
  <path id="bkgd2" class="cls-2" d="m414.25,468.08c.67-1.81,1.1-3.76,2.04-5.41,32.64-57.11,65.34-114.18,98-171.28,1.71-3,3.17-6.14,4.74-9.22-2.17,29.86-9.93,58.29-22.31,85.46-17.58,38.56-43.17,70.88-76.52,97.02-1.78,1.4-3.96,2.29-5.95,3.42Z"/>
  <path id="bkgd" class="cls-1" d="m519.55,274.25c-.72-8.19-5.36-13.45-12.8-16.16-6.97-2.53-15.34.11-20.23,6.13-1.98,2.44-3.66,5.15-5.26,7.86-12.48,21.19-24.91,42.41-37.34,63.62-1.93,3.3-4.13,6.27-8.53,5.52-6.18-1.05-8.18-6.16-4.66-12.18,10.64-18.23,21.38-36.39,32.07-54.58,9.68-16.47,19.45-32.89,28.99-49.44,5.58-9.68,4.68-18.88-2.03-25.68-8.62-8.73-21.81-7.82-28.76,2.81-7.99,12.22-15.14,25.01-22.57,37.6-13.51,22.9-26.94,45.84-40.42,68.75-3.18,5.41-6.54,6.59-10.95,3.94-4.3-2.58-4.86-6.1-1.66-11.55,26.42-44.99,52.86-89.96,79.29-134.94,3.75-6.38,7.09-12.75,4.74-20.65-4.02-13.52-20.44-18.37-30.7-8.69-2.73,2.57-4.92,5.85-6.85,9.11-26.6,45.08-53.1,90.2-79.64,135.32-3.14,5.34-5.86,6.68-9.88,4.94-5.03-2.18-6.2-6.47-3.05-11.85,16.04-27.38,32.13-54.74,48.19-82.11,5.72-9.74,11.55-19.42,17.1-29.26,3.94-6.99,3.89-14.05-1.22-20.53-5.29-6.7-12.2-9.58-20.72-7.64-5.38,1.22-8.96,4.85-11.67,9.44-23.85,40.52-47.7,81.04-71.43,121.63-.79,1.36-.93,3.88-.2,5.22,8.23,15.07,4.73,26.9-10.64,35.34-3.94,2.16-9.61,3.62-11.18,6.95-1.55,3.29,1.59,8.53,1.79,12.96.42,9.07,1.73,18.47,0,27.2-3.37,16.92-16.32,25.16-31.96,29.23-15.72,4.09-31.7,2.87-47.57.59-7.53-1.08-14.99-2.68-23.18-4.18,1.6,16.44,8.12,30.53,18.12,43.22,10.02,12.72,22.48,22.54,37.05,30.6-11.7,19.85-23.22,39.42-34.75,58.98-20.43-4.51-39.64-12.27-58.09-21.97-33.93-17.84-62.47-42.1-85.72-72.57-1-1.31-1.83-2.75-2.74-4.14,18.78-17.46,37.55-34.94,56.36-52.37,1.33-1.24,2.94-2.18,4.39-3.3,9.71-7.49,20.1-8.63,31.91-5.19,18.1,5.28,36.37,10.16,54.83,13.95,14.67,3.01,29.76,3.66,44.39-1.2,15.92-5.29,21.89-14.26,20.08-30.98-1.09-10.01-3.14-19.91-4.87-30.55,6.16-2.58,12.96-5.51,19.82-8.28,4.57-1.84,8.3-4.46,8.85-9.72.56-5.35-2.15-9.15-6.49-12.03-8.72-5.78-17.39-11.63-26.91-18.02,8.6-3.34,16.47-6.4,24.36-9.43,4.49-1.72,9.01-3.36,13.5-5.08,8.62-3.29,10.25-9.34,4.54-16.76-2.23-2.9-4.62-5.69-6.73-8.68-3.9-5.53-2.17-10.57,4.3-12.83,5-1.75,10.04-3.38,15.04-5.14,12.64-4.44,15.3-13.67,7.44-24.52-13.37-18.45-26.62-36.98-39.68-55.65-3.31-4.73-5.61-10.15-8.47-15.2-3.14-5.54-1.83-10.55,1.65-15.32,1.17-1.61,2.28-3.43,3.84-4.59,10.38-7.72,10.97-17.96,8.49-29.5C277.37,35.19,274.14,17.57,270.68,0c31.31.94,61.61,7.24,90.11,20.05,90.99,40.9,143.74,111,157.41,209.9,2.01,14.55.97,29.53,1.35,44.3Z"/>
  <path id="hand" class="cls-3" d="m519.55,274.25c-.17,2.64-.34,5.28-.51,7.92-1.57,3.08-3.03,6.22-4.74,9.22-32.66,57.1-65.36,114.17-98,171.28-.95,1.65-1.37,3.6-2.04,5.41-1.95,1.78-3.71,3.83-5.87,5.29-64.03,43.07-133.7,56.19-209,39.24-.8-.18-1.55-.56-2.33-.85,11.52-19.56,23.05-39.12,34.75-58.98-14.57-8.06-27.02-17.88-37.05-30.6-10-12.69-16.52-26.78-18.12-43.22,8.19,1.49,15.65,3.09,23.18,4.18,15.87,2.28,31.85,3.5,47.57-.59,15.64-4.07,28.6-12.31,31.96-29.23,1.74-8.73.42-18.13,0-27.2-.2-4.43-3.34-9.66-1.79-12.96,1.57-3.34,7.24-4.79,11.18-6.95,15.38-8.44,18.88-20.27,10.64-35.34-.73-1.34-.59-3.86.2-5.22,23.73-40.59,47.58-81.11,71.43-121.63,2.7-4.59,6.28-8.22,11.67-9.44,8.52-1.93,15.43.94,20.72,7.64,5.11,6.47,5.16,13.54,1.22,20.53-5.55,9.84-11.38,19.52-17.1,29.26-16.07,27.37-32.15,54.73-48.19,82.11-3.15,5.38-1.98,9.67,3.05,11.85,4.02,1.74,6.73.41,9.88-4.94,26.53-45.11,53.04-90.24,79.64-135.32,1.92-3.26,4.12-6.54,6.85-9.11,10.26-9.67,26.67-4.83,30.7,8.69,2.35,7.9-.99,14.27-4.74,20.65-26.43,44.98-52.88,89.95-79.29,134.94-3.2,5.46-2.64,8.97,1.66,11.55,4.41,2.65,7.77,1.47,10.95-3.94,13.48-22.91,26.92-45.85,40.42-68.75,7.43-12.59,14.57-25.37,22.57-37.6,6.95-10.63,20.14-11.55,28.76-2.81,6.71,6.8,7.61,16.01,2.03,25.68-9.54,16.55-19.31,32.97-28.99,49.44-10.69,18.19-21.44,36.36-32.07,54.58-3.52,6.03-1.52,11.14,4.66,12.18,4.4.75,6.6-2.23,8.53-5.52,12.43-21.22,24.86-42.43,37.34-63.62,1.6-2.71,3.28-5.43,5.26-7.86,4.89-6.02,13.26-8.66,20.23-6.13,7.45,2.71,12.08,7.97,12.8,16.16Z"/>
  <path id="face" class="cls-3" d="m50.49,413.08c-14.33-18.45-25-38.93-33.28-60.67C-41.48,198.27,55.85,29.45,218.93,3.12c16.98-2.74,34.49-2.16,51.75-3.12,3.46,17.57,6.69,35.19,10.45,52.69,2.47,11.54,1.89,21.78-8.49,29.5-1.56,1.16-2.66,2.97-3.84,4.59-3.47,4.77-4.78,9.78-1.65,15.32,2.86,5.05,5.16,10.47,8.47,15.2,13.05,18.67,26.31,37.2,39.68,55.65,7.86,10.85,5.2,20.08-7.44,24.52-5,1.76-10.04,3.39-15.04,5.14-6.47,2.26-8.2,7.31-4.3,12.83,2.11,2.99,4.5,5.78,6.73,8.68,5.71,7.42,4.08,13.47-4.54,16.76-4.49,1.72-9.01,3.35-13.5,5.08-7.88,3.03-15.75,6.1-24.36,9.43,9.53,6.38,18.19,12.24,26.91,18.02,4.34,2.88,7.05,6.68,6.49,12.03-.55,5.27-4.28,7.88-8.85,9.72-6.86,2.77-13.65,5.69-19.82,8.28,1.73,10.65,3.78,20.55,4.87,30.55,1.81,16.71-4.16,25.69-20.08,30.98-14.63,4.86-29.71,4.21-44.39,1.2-18.46-3.79-36.73-8.67-54.83-13.95-11.81-3.44-22.2-2.3-31.91,5.19-1.45,1.12-3.05,2.06-4.39,3.3-18.81,17.44-37.58,34.91-56.36,52.37Z"/>
</svg>
